Coordinates
version=1
nRows=88
nColumns=6
inDegrees=yes

Units are S.I. units (second, meters, Newtons, ...)
If the header above contains a line with 'inDegrees', this indicates whether rotational values are in degrees (yes) or radians (no).

endheader
time	foot_tx	hip_flexion_r	knee_angle_r	ankle_angle_r	lumbar
     26.10000000	      0.24352402	     57.45048688	    -85.77027717	      4.79671412	    -38.24681942
     26.11000000	      0.24348957	     57.49854770	    -85.77512779	      4.80418076	    -38.29176388
     26.12000000	      0.24348579	     57.55489642	    -85.77354248	      4.80459631	    -38.33634090
     26.13000000	      0.24346658	     57.61724634	    -85.77502116	      4.80691458	    -38.38076878
     26.14000000	      0.24344007	     57.68344447	    -85.77707100	      4.80942380	    -38.42863449
     26.15000000	      0.24340108	     57.77139100	    -85.78206804	      4.81189328	    -38.46139419
     26.16000000	      0.24336632	     57.83766836	    -85.78483439	      4.81512229	    -38.52379306
     26.17000000	      0.24332924	     57.90816932	    -85.78693145	      4.81755114	    -38.59029995
     26.18000000	      0.24328827	     57.98260402	    -85.78919442	      4.81998567	    -38.66104619
     26.19000000	      0.24324412	     58.06075919	    -85.79125842	      4.82229880	    -38.73640636
     26.20000000	      0.24319754	     58.14246505	    -85.79295966	      4.82458289	    -38.81670716
     26.21000000	      0.24315026	     58.22755220	    -85.79418175	      4.82700178	    -38.90218844
     26.22000000	      0.24310404	     58.31562586	    -85.79478102	      4.82971251	    -38.99344775
     26.23000000	      0.24305895	     58.40722696	    -85.79510619	      4.83312843	    -39.09019758
     26.24000000	      0.24301791	     58.50235914	    -85.79525265	      4.83729560	    -39.19296056
     26.25000000	      0.24296751	     58.56958653	    -85.79433952	      4.84585610	    -39.33541644
     26.26000000	      0.24292579	     58.67944563	    -85.79525510	      4.85153063	    -39.44614987
     26.27000000	      0.24288331	     58.77278998	    -85.79434571	      4.85894102	    -39.58761679
     26.28000000	      0.24284660	     58.89733145	    -85.79462122	      4.86416635	    -39.71198307
     26.29000000	      0.24280804	     59.02783687	    -85.79413442	      4.86899145	    -39.84708023
     26.30000000	      0.24276729	     59.13308958	    -85.79179310	      4.87637052	    -40.02560857
     26.31000000	      0.24273457	     59.28451238	    -85.79058032	      4.87929920	    -40.17517685
     26.32000000	      0.24269939	     59.44453358	    -85.78885377	      4.88165777	    -40.33522066
     26.33000000	      0.24266617	     59.61362053	    -85.78660605	      4.88331144	    -40.50527151
     26.34000000	      0.24263405	     59.79176870	    -85.78434491	      4.88474093	    -40.68533801
     26.35000000	      0.24259871	     59.98083403	    -85.78127090	      4.88588530	    -40.87431419
     26.36000000	      0.24256412	     60.18167959	    -85.77767603	      4.88645929	    -41.07090602
     26.37000000	      0.24252795	     60.39517845	    -85.77309866	      4.88672333	    -41.27501354
     26.38000000	      0.24249157	     60.62207125	    -85.76683326	      4.88629295	    -41.48653234
     26.39000000	      0.24245225	     60.86406190	    -85.75903924	      4.88548653	    -41.70380065
     26.40000000	      0.24240820	     61.17283363	    -85.75514960	      4.88225605	    -41.87283735
     26.41000000	      0.24236534	     61.43696817	    -85.74415412	      4.88249032	    -42.11086661
     26.42000000	      0.24231870	     61.77847218	    -85.73703520	      4.87973445	    -42.29003676
     26.43000000	      0.24227305	     62.10541336	    -85.72638939	      4.87975487	    -42.50728499
     26.44000000	      0.24222918	     62.40686313	    -85.71097804	      4.88322831	    -42.77460415
     26.45000000	      0.24218000	     62.81034362	    -85.70411858	      4.88430568	    -42.95816534
     26.46000000	      0.24213279	     63.18897715	    -85.69366025	      4.88991069	    -43.19133988
     26.47000000	      0.24208699	     63.58425583	    -85.68421023	      4.89848016	    -43.43010725
     26.48000000	      0.24204292	     63.99603236	    -85.67624523	      4.91059364	    -43.67404811
     26.49000000	      0.24200119	     64.42487705	    -85.67017168	      4.92656032	    -43.92216095
     26.50000000	      0.24196234	     64.87305266	    -85.66640174	      4.94632474	    -44.17200226
     26.51000000	      0.24192701	     65.34508227	    -85.66534168	      4.96934212	    -44.41931122
     26.52000000	      0.24189378	     65.84908519	    -85.66770374	      4.99476203	    -44.65654432
     26.53000000	      0.24186189	     66.39356072	    -85.67389462	      5.02155936	    -44.87591705
     26.54000000	      0.24183182	     66.98422844	    -85.68406441	      5.04932692	    -45.07172759
     26.55000000	      0.24180608	     67.62233964	    -85.69755913	      5.07840385	    -45.24135588
     26.56000000	      0.24177475	     68.29645368	    -85.71660822	      5.11375336	    -45.39290200
     26.57000000	      0.24174717	     69.00033796	    -85.73853932	      5.15596252	    -45.52969158
     26.58000000	      0.24171902	     69.72275812	    -85.76365164	      5.20824501	    -45.66022853
     26.59000000	      0.24170116	     70.45680593	    -85.78979968	      5.27021493	    -45.79075208
     26.60000000	      0.24168377	     71.20432335	    -85.81893326	      5.34359959	    -45.91791636
     26.61000000	      0.24166827	     71.96823945	    -85.85131936	      5.42829550	    -46.03771923
     26.62000000	      0.24166288	     72.75759282	    -85.88735080	      5.52353230	    -46.13910680
     26.63000000	      0.24165095	     73.56282940	    -85.92989877	      5.63364595	    -46.22921395
     26.64000000	      0.24163414	     74.39563793	    -85.97863877	      5.75759958	    -46.29346913
     26.65000000	      0.24160264	     75.25262907	    -86.03389433	      5.89709974	    -46.33241835
     26.66000000	      0.24155880	     76.13378948	    -86.09319265	      6.05142665	    -46.34291478
     26.67000000	      0.24149035	     77.03048076	    -86.15759078	      6.22387231	    -46.32891370
     26.68000000	      0.24140931	     77.93248958	    -86.22045390	      6.41178291	    -46.29825010
     26.69000000	      0.24131809	     78.83469714	    -86.27907003	      6.61466286	    -46.25223049
     26.70000000	      0.24122558	     79.72490997	    -86.32946596	      6.83141491	    -46.20049904
     26.71000000	      0.24113961	     80.60255231	    -86.36721189	      7.06002786	    -46.14052706
     26.72000000	      0.24107371	     81.46784727	    -86.38964362	      7.29890044	    -46.06950479
     26.73000000	      0.24103224	     82.33055850	    -86.39457965	      7.54610485	    -45.97383406
     26.74000000	      0.24102434	     83.19332899	    -86.37997980	      7.79962573	    -45.84798442
     26.75000000	      0.24105578	     84.05538580	    -86.34639356	      8.05837946	    -45.68951112
     26.76000000	      0.24112782	     84.91095028	    -86.29259868	      8.32065542	    -45.50166988
     26.77000000	      0.24123725	     85.75249195	    -86.22113838	      8.58642286	    -45.28894993
     26.78000000	      0.24138036	     86.56856129	    -86.13697428	      8.85688582	    -45.06021023
     26.79000000	      0.24155009	     87.34842053	    -86.04244275	      9.13173137	    -44.82365191
     26.80000000	      0.24173620	     88.07866698	    -85.94381958	      9.41311003	    -44.58949288
     26.81000000	      0.24193864	     88.74135681	    -85.84460544	      9.70126529	    -44.37426075
     26.82000000	      0.24215767	     89.31936113	    -85.74768040	      9.99637508	    -44.19313614
     26.83000000	      0.24237901	     89.79960225	    -85.65713881	     10.30043499	    -44.05429352
     26.84000000	      0.24261027	     90.17060830	    -85.57190978	     10.61120744	    -43.96744689
     26.85000000	      0.24285419	     90.42625798	    -85.49038550	     10.92662769	    -43.93702626
     26.86000000	      0.24311265	     90.56686193	    -85.40955308	     11.24427863	    -43.96108467
     26.87000000	      0.24338141	     90.60278328	    -85.32499073	     11.56103187	    -44.02827979
     26.88000000	      0.24365910	     90.54435175	    -85.22966233	     11.87310284	    -44.12843452
     26.89000000	      0.24393582	     90.40570961	    -85.11814672	     12.17846599	    -44.24550328
     26.90000000	      0.24420220	     90.19658777	    -84.98370050	     12.47460483	    -44.37080433
     26.91000000	      0.24445313	     89.92939220	    -84.82012547	     12.75887359	    -44.49220803
     26.92000000	      0.24468400	     89.61346098	    -84.62285230	     13.02940675	    -44.60139796
     26.93000000	      0.24489293	     89.25899473	    -84.38769341	     13.28386047	    -44.68986862
     26.94000000	      0.24508015	     88.87550334	    -84.11070657	     13.51967590	    -44.75058880
     26.95000000	      0.24524638	     88.47126465	    -83.78989296	     13.73533208	    -44.77773051
     26.96000000	      0.24539198	     88.05223481	    -83.42310247	     13.92953631	    -44.76847675
     26.97000000	      0.24552193	     87.62742277	    -83.00978725	     14.10110412	    -44.71503668
